<svg xmlns="http://www.w3.org/2000/svg" viewBox="0 0 110.1 70.4"><defs><style>.cls-1{fill:#fff;}</style></defs><title>资源 1</title><g id="图层_2" data-name="图层 2"><g id="图层_1-2" data-name="图层 1"><path class="cls-1" d="M71.3,50.7v1.7a1.39,1.39,0,0,1,1-.5,1.27,1.27,0,0,1,.6.1,1.38,1.38,0,0,1,.4.3c.1.1.1.2.2.4v2.7h-.9V53.6c0-.4,0-.6-.1-.7a.22.22,0,0,0-.2-.2.37.37,0,0,0-.3-.1.6.6,0,0,0-.4.1l-.3.3c-.1.1-.1.4-.1.6v1.7h-.9V50.7Z"/><path class="cls-1" d="M74.3,54.3l.9-.1a.52.52,0,0,0,.2.4,1.3,1.3,0,0,0,1,0c.1-.1.1-.1.1-.2s0-.1-.1-.2a.44.44,0,0,0-.3-.1c-.7-.2-1.2-.3-1.4-.4a.81.81,0,0,1-.4-.8.91.91,0,0,1,.3-.7,1.61,1.61,0,0,1,1.1-.3,2.15,2.15,0,0,1,1,.2,1.28,1.28,0,0,1,.5.7l-.8.2c0-.1-.1-.2-.2-.3s-.2-.1-.4-.1a.75.75,0,0,0-.5.1c-.1,0-.1.1-.1.2s0,.1.1.2.4.1.8.2a1.88,1.88,0,0,1,1,.4,1,1,0,0,1-.1,1.5,2.17,2.17,0,0,1-2.2,0A2.62,2.62,0,0,1,74.3,54.3Z"/><path class="cls-1" d="M79.5,50.7v1.7a1.39,1.39,0,0,1,1-.5,1.27,1.27,0,0,1,.6.1,1.38,1.38,0,0,1,.4.3c.1.1.1.2.2.4v2.7h-.9V53.6c0-.4,0-.6-.1-.7a.22.22,0,0,0-.2-.2.37.37,0,0,0-.3-.1.6.6,0,0,0-.4.1l-.3.3c-.1.1-.1.4-.1.6v1.7h-.9V50.7Z"/><path class="cls-1" d="M84.4,52v.7h-.6v1.8a.1.1,0,0,0,.1.1H84a.76.76,0,0,0,.4-.1l.1.7a1.48,1.48,0,0,1-.7.1c-.2,0-.3,0-.4-.1s-.2-.1-.3-.2a.37.37,0,0,1-.1-.3V52.6h-.4V52H83v-.7l.9-.5V52Z"/><path class="cls-1" d="M85.1,53.6a2.92,2.92,0,0,1,.2-.9,1.17,1.17,0,0,1,.6-.6,2.92,2.92,0,0,1,.9-.2,1.71,1.71,0,0,1,1.7,1.7,2.11,2.11,0,0,1-.5,1.3,1.66,1.66,0,0,1-1.2.5,2.92,2.92,0,0,1-.9-.2.9.9,0,0,1-.6-.6A3,3,0,0,1,85.1,53.6Zm.9,0a1.88,1.88,0,0,0,.2.8.75.75,0,0,0,1.2,0c.2-.2.2-.4.2-.8a1.88,1.88,0,0,0-.2-.8.75.75,0,0,0-1.2,0A1.88,1.88,0,0,0,86,53.6Z"/><path class="cls-1" d="M92.6,55.3h-.9V53.6c0-.4,0-.6-.1-.7a.22.22,0,0,0-.2-.2.37.37,0,0,0-.3-.1c-.2,0-.3,0-.4.1l-.3.3a5.38,5.38,0,0,0-.1.8v1.5h-.9V52h.8v.5a1.38,1.38,0,0,1,1.1-.6.75.75,0,0,1,.5.1,1.38,1.38,0,0,1,.4.3c.1.1.1.2.2.4v2.6Z"/><path class="cls-1" d="M93.9,55.3v-.9h.9v.9Z"/><path class="cls-1" d="M98.9,52.9l-.9.2a.52.52,0,0,0-.2-.4c-.1-.1-.2-.1-.4-.1a.76.76,0,0,0-.5.2,1.55,1.55,0,0,0-.2.8,1.29,1.29,0,0,0,.2.8c.1.2.3.2.5.2s.3,0,.4-.1A.76.76,0,0,0,98,54l.9.1a1.93,1.93,0,0,1-.5.9,1.69,1.69,0,0,1-1,.3,1.66,1.66,0,0,1-1.2-.5,2.31,2.31,0,0,1,0-2.6,1.66,1.66,0,0,1,1.2-.5,1.69,1.69,0,0,1,1,.3A4.05,4.05,0,0,1,98.9,52.9Z"/><path class="cls-1" d="M99.7,53.6a2.92,2.92,0,0,1,.2-.9,1.17,1.17,0,0,1,.6-.6,2.92,2.92,0,0,1,.9-.2,1.71,1.71,0,0,1,1.7,1.7,2.11,2.11,0,0,1-.5,1.3,1.66,1.66,0,0,1-1.2.5,2.92,2.92,0,0,1-.9-.2.9.9,0,0,1-.6-.6A3,3,0,0,1,99.7,53.6Zm.9,0a1.88,1.88,0,0,0,.2.8.75.75,0,0,0,1.2,0c.2-.2.2-.4.2-.8a1.88,1.88,0,0,0-.2-.8.75.75,0,0,0-1.2,0A1.88,1.88,0,0,0,100.6,53.6Z"/><path class="cls-1" d="M104.1,52h.8v.5a1.11,1.11,0,0,1,1-.5,1.27,1.27,0,0,1,.6.1.78.78,0,0,1,.4.4,1,1,0,0,1,.5-.4,1.09,1.09,0,0,1,.5-.1c.2,0,.5.1.6.1a.78.78,0,0,1,.4.4c.1.1.1.4.1.7v2.1h-.9V53.4c0-.3,0-.5-.1-.6a.52.52,0,0,0-.4-.2.76.76,0,0,0-.4.1c-.1.1-.2.2-.2.3a5.64,5.64,0,0,0-.1.7v1.6H106V52.9a.35.35,0,0,0-.1-.2c-.1,0-.2-.1-.3-.1a.6.6,0,0,0-.4.1c-.1.1-.2.2-.2.3a5.64,5.64,0,0,0-.1.7v1.6H104V52Z"/><circle class="cls-1" cx="52.8" cy="53" r="2.3"/><circle class="cls-1" cx="48.3" cy="56.6" r="2.3"/><circle class="cls-1" cx="43.2" cy="59" r="2.3"/><circle class="cls-1" cx="37.8" cy="60.2" r="2.3"/><circle class="cls-1" cx="32.3" cy="60.2" r="2.3"/><circle class="cls-1" cx="26.9" cy="59" r="2.3"/><circle class="cls-1" cx="21.8" cy="56.6" r="2.3"/><circle class="cls-1" cx="17.2" cy="53" r="2.3"/><circle class="cls-1" cx="13.6" cy="48.4" r="2.3"/><circle class="cls-1" cx="11.2" cy="43.3" r="2.3"/><circle class="cls-1" cx="10" cy="37.9" r="2.3"/><circle class="cls-1" cx="10" cy="32.4" r="2.3"/><circle class="cls-1" cx="11.2" cy="27" r="2.3"/><circle class="cls-1" cx="13.6" cy="21.9" r="2.3"/><circle class="cls-1" cx="17.2" cy="17.4" r="2.3"/><circle class="cls-1" cx="21.8" cy="13.7" r="2.3"/><circle class="cls-1" cx="26.9" cy="11.3" r="2.3"/><circle class="cls-1" cx="32.3" cy="10.1" r="2.3"/><circle class="cls-1" cx="37.8" cy="10.1" r="2.3"/><circle class="cls-1" cx="43.2" cy="11.3" r="2.3"/><circle class="cls-1" cx="48.3" cy="13.7" r="2.3"/><circle class="cls-1" cx="52.8" cy="17.4" r="2.3"/><circle class="cls-1" cx="57.9" cy="54.2" r="1.4"/><circle class="cls-1" cx="53" cy="58.9" r="1.4"/><circle class="cls-1" cx="47.3" cy="62.3" r="1.4"/><circle class="cls-1" cx="41.1" cy="64.3" r="1.4"/><circle class="cls-1" cx="34.6" cy="64.9" r="1.4"/><circle class="cls-1" cx="28.2" cy="64.1" r="1.4"/><circle class="cls-1" cx="22" cy="62" r="1.4"/><circle class="cls-1" cx="16.4" cy="58.4" r="1.4"/><circle class="cls-1" cx="11.6" cy="53.5" r="1.4"/><circle class="cls-1" cx="8.1" cy="47.8" r="1.4"/><circle class="cls-1" cx="6" cy="41.6" r="1.4"/><circle class="cls-1" cx="5.3" cy="35.2" r="1.4"/><circle class="cls-1" cx="6" cy="28.7" r="1.4"/><circle class="cls-1" cx="8.1" cy="22.6" r="1.4"/><circle class="cls-1" cx="11.6" cy="16.9" r="1.4"/><circle class="cls-1" cx="16.4" cy="12" r="1.4"/><circle class="cls-1" cx="22" cy="8.4" r="1.4"/><circle class="cls-1" cx="28.2" cy="6.2" r="1.4"/><circle class="cls-1" cx="34.6" cy="5.4" r="1.4"/><circle class="cls-1" cx="41.1" cy="6" r="1.4"/><circle class="cls-1" cx="47.3" cy="8" r="1.4"/><circle class="cls-1" cx="53" cy="11.4" r="1.4"/><circle class="cls-1" cx="57.9" cy="16.1" r="1.4"/><circle class="cls-1" cx="62.4" cy="55.9" r="0.9"/><circle class="cls-1" cx="57.2" cy="61.3" r="0.9"/><circle class="cls-1" cx="51" cy="65.6" r="0.9"/><circle class="cls-1" cx="44.1" cy="68.3" r="0.9"/><circle class="cls-1" cx="36.9" cy="69.5" r="0.9"/><circle class="cls-1" cx="29.7" cy="69.1" r="0.9"/><circle class="cls-1" cx="22.6" cy="67.2" r="0.9"/><circle class="cls-1" cx="16" cy="63.7" r="0.9"/><circle class="cls-1" cx="10.1" cy="58.8" r="0.9"/><circle class="cls-1" cx="5.5" cy="52.7" r="0.9"/><circle class="cls-1" cx="2.4" cy="45.9" r="0.9"/><circle class="cls-1" cx="0.9" cy="38.8" r="0.9"/><circle class="cls-1" cx="0.9" cy="31.5" r="0.9"/><circle class="cls-1" cx="2.4" cy="24.4" r="0.9"/><circle class="cls-1" cx="5.5" cy="17.6" r="0.9"/><circle class="cls-1" cx="10.1" cy="11.6" r="0.9"/><circle class="cls-1" cx="16" cy="6.6" r="0.9"/><circle class="cls-1" cx="22.6" cy="3.2" r="0.9"/><circle class="cls-1" cx="29.6" cy="1.2" r="0.9"/><circle class="cls-1" cx="36.9" cy="0.9" r="0.9"/><circle class="cls-1" cx="44.1" cy="2" r="0.9"/><circle class="cls-1" cx="51" cy="4.7" r="0.9"/><circle class="cls-1" cx="57.2" cy="9" r="0.9"/><circle class="cls-1" cx="62.4" cy="14.5" r="0.9"/><path class="cls-1" d="M37.5,23.8l-3.1-1.5c-2.7,3.6-7.8,7.1-13.2,9.1a16.63,16.63,0,0,1,2.4,3c1.5-.7,2.9-1.4,4.3-2.2l.2-.1v1.8H40.4l1.2-1.6c1.3.7,2.6,1.4,3.8,1.9a17,17,0,0,1,2.3-3A36.5,36.5,0,0,1,36.3,25,13.26,13.26,0,0,0,37.5,23.8Zm2.1,7.1.2.1H29.7l.2-.1A36,36,0,0,0,34.6,27,28.87,28.87,0,0,0,39.6,30.9Z"/><path class="cls-1" d="M34.5,39.7H44.8l2.4-3.3H23.7l-2.4,3.3h8.4A29.46,29.46,0,0,1,26,43.6,5.65,5.65,0,0,1,23.8,45a21.94,21.94,0,0,1,1.1,3.4c1.4-.5,3.3-.7,17.3-1.7a19.66,19.66,0,0,1,1.4,2.2l3-1.8a46.64,46.64,0,0,0-6.4-5.7H37.4c.8.8,1.6,1.6,2.4,2.5l-9.8.4A39,39,0,0,0,34.5,39.7Z"/><path class="cls-1" d="M74.3,40.9V32.5h2.1l2.4-3.3H74.3V22.9H70.8v6.3H66.9V22.6H63.6v6.6H59.8v-6H56.3v6H52.5v3.3h3.8V47.4H75.8l2.4-3.3H59.7V32.5h3.8v8.4Zm-7.4-8.4h3.9v5.3H66.9Z"/><path class="cls-1" d="M88.8,30.3,91.2,28a47.8,47.8,0,0,0-5.1-4.5l-2.3,2A38.74,38.74,0,0,1,88.8,30.3Z"/><path class="cls-1" d="M99.3,45.4c-3.1,0-5.6-.2-7.4-1.3a4.05,4.05,0,0,0-.9-.5,1.71,1.71,0,0,1-.7-1.3V33.2H83.5v3.1h3.6V43a15.36,15.36,0,0,0-3.8,2.9l2.1,2.8c1.2-1.7,2.6-3.4,3.4-3.4.6,0,1.6.8,2.7,1.5,2,1.1,4.2,1.4,7.8,1.4,3,0,7.1-.1,9.3-.3l1.5-3.3A64.65,64.65,0,0,1,99.3,45.4Z"/><path class="cls-1" d="M95.9,39.8h3.3V44h3V39.9h3.3v1.3c0,.3-.1.4-.4.4h-2.2a7.86,7.86,0,0,1,.8,2.6c1.7,0,2.9,0,3.8-.5s1.2-1.1,1.2-2.5V29.5h-3.8c-.4-.2-.9-.6-1.4-.8a29.76,29.76,0,0,0,5.1-3.9l-2-1.6-.7.2H93v2.5h10.1a20,20,0,0,1-2.4,1.6l-3.8-.8-2,1.1c1.2.5,2.7,1.1,4,1.8H92.7V44.2h3.2Zm6.2-7.9h3.3v1.5h-3.3Zm0,3.9h3.3v1.6h-3.3Zm-6.2-3.9h3.3v1.5H95.9Zm0,3.9h3.3v1.6H95.9Z"/></g></g></svg>