<svg xmlns="http://www.w3.org/2000/svg" viewBox="0 0 63.3 70.4"><defs><style>.cls-1{fill:#fff;}</style></defs><title>资源 2</title><g id="图层_2" data-name="图层 2"><g id="图层_1-2" data-name="图层 1"><circle class="cls-1" cx="52.8" cy="53" r="2.3"/><circle class="cls-1" cx="48.3" cy="56.6" r="2.3"/><circle class="cls-1" cx="43.2" cy="59" r="2.3"/><circle class="cls-1" cx="37.8" cy="60.2" r="2.3"/><circle class="cls-1" cx="32.3" cy="60.2" r="2.3"/><circle class="cls-1" cx="26.9" cy="59" r="2.3"/><circle class="cls-1" cx="21.8" cy="56.6" r="2.3"/><circle class="cls-1" cx="17.2" cy="53" r="2.3"/><circle class="cls-1" cx="13.6" cy="48.4" r="2.3"/><circle class="cls-1" cx="11.2" cy="43.3" r="2.3"/><circle class="cls-1" cx="10" cy="37.9" r="2.3"/><circle class="cls-1" cx="10" cy="32.4" r="2.3"/><circle class="cls-1" cx="11.2" cy="27" r="2.3"/><circle class="cls-1" cx="13.6" cy="21.9" r="2.3"/><circle class="cls-1" cx="17.2" cy="17.4" r="2.3"/><circle class="cls-1" cx="21.8" cy="13.7" r="2.3"/><circle class="cls-1" cx="26.9" cy="11.3" r="2.3"/><circle class="cls-1" cx="32.3" cy="10.1" r="2.3"/><circle class="cls-1" cx="37.8" cy="10.1" r="2.3"/><circle class="cls-1" cx="43.2" cy="11.3" r="2.3"/><circle class="cls-1" cx="48.3" cy="13.7" r="2.3"/><circle class="cls-1" cx="52.8" cy="17.4" r="2.3"/><circle class="cls-1" cx="57.9" cy="54.2" r="1.4"/><circle class="cls-1" cx="53" cy="58.9" r="1.4"/><circle class="cls-1" cx="47.3" cy="62.3" r="1.4"/><circle class="cls-1" cx="41.1" cy="64.3" r="1.4"/><circle class="cls-1" cx="34.6" cy="64.9" r="1.4"/><circle class="cls-1" cx="28.2" cy="64.1" r="1.4"/><circle class="cls-1" cx="22" cy="62" r="1.4"/><circle class="cls-1" cx="16.4" cy="58.4" r="1.4"/><circle class="cls-1" cx="11.6" cy="53.5" r="1.4"/><circle class="cls-1" cx="8.1" cy="47.8" r="1.4"/><circle class="cls-1" cx="6" cy="41.6" r="1.4"/><circle class="cls-1" cx="5.3" cy="35.2" r="1.4"/><circle class="cls-1" cx="6" cy="28.7" r="1.4"/><circle class="cls-1" cx="8.1" cy="22.6" r="1.4"/><circle class="cls-1" cx="11.6" cy="16.9" r="1.4"/><circle class="cls-1" cx="16.4" cy="12" r="1.4"/><circle class="cls-1" cx="22" cy="8.4" r="1.4"/><circle class="cls-1" cx="28.2" cy="6.2" r="1.4"/><circle class="cls-1" cx="34.6" cy="5.4" r="1.4"/><circle class="cls-1" cx="41.1" cy="6" r="1.4"/><circle class="cls-1" cx="47.3" cy="8" r="1.4"/><circle class="cls-1" cx="53" cy="11.4" r="1.4"/><circle class="cls-1" cx="57.9" cy="16.1" r="1.4"/><circle class="cls-1" cx="62.4" cy="55.9" r="0.9"/><circle class="cls-1" cx="57.2" cy="61.3" r="0.9"/><circle class="cls-1" cx="51" cy="65.6" r="0.9"/><circle class="cls-1" cx="44.1" cy="68.3" r="0.9"/><circle class="cls-1" cx="36.9" cy="69.5" r="0.9"/><circle class="cls-1" cx="29.7" cy="69.1" r="0.9"/><circle class="cls-1" cx="22.6" cy="67.2" r="0.9"/><circle class="cls-1" cx="16" cy="63.7" r="0.9"/><circle class="cls-1" cx="10.1" cy="58.8" r="0.9"/><circle class="cls-1" cx="5.5" cy="52.7" r="0.9"/><circle class="cls-1" cx="2.4" cy="45.9" r="0.9"/><circle class="cls-1" cx="0.9" cy="38.8" r="0.9"/><circle class="cls-1" cx="0.9" cy="31.5" r="0.9"/><circle class="cls-1" cx="2.4" cy="24.4" r="0.9"/><circle class="cls-1" cx="5.5" cy="17.6" r="0.9"/><circle class="cls-1" cx="10.1" cy="11.6" r="0.9"/><circle class="cls-1" cx="16" cy="6.6" r="0.9"/><circle class="cls-1" cx="22.6" cy="3.2" r="0.9"/><circle class="cls-1" cx="29.6" cy="1.2" r="0.9"/><circle class="cls-1" cx="36.9" cy="0.9" r="0.9"/><circle class="cls-1" cx="44.1" cy="2" r="0.9"/><circle class="cls-1" cx="51" cy="4.7" r="0.9"/><circle class="cls-1" cx="57.2" cy="9" r="0.9"/><circle class="cls-1" cx="62.4" cy="14.5" r="0.9"/><path class="cls-1" d="M37.5,23.8l-3.1-1.5c-2.7,3.6-7.8,7.1-13.2,9.1a16.63,16.63,0,0,1,2.4,3c1.5-.7,2.9-1.4,4.3-2.2l.2-.1v1.8H40.4l1.2-1.6c1.3.7,2.6,1.4,3.8,1.9a17,17,0,0,1,2.3-3A36.5,36.5,0,0,1,36.3,25,13.26,13.26,0,0,0,37.5,23.8Zm2.1,7.1.2.1H29.7l.2-.1A36,36,0,0,0,34.6,27,28.87,28.87,0,0,0,39.6,30.9Z"/><path class="cls-1" d="M34.5,39.7H44.8l2.4-3.3H23.7l-2.4,3.3h8.4A29.46,29.46,0,0,1,26,43.6,5.65,5.65,0,0,1,23.8,45a21.94,21.94,0,0,1,1.1,3.4c1.4-.5,3.3-.7,17.3-1.7a19.66,19.66,0,0,1,1.4,2.2l3-1.8a46.64,46.64,0,0,0-6.4-5.7H37.4c.8.8,1.6,1.6,2.4,2.5l-9.8.4A39,39,0,0,0,34.5,39.7Z"/></g></g></svg>